<svg width="82" height="393" viewBox="0 0 82 393" fill="none" xmlns="http://www.w3.org/2000/svg">
<g clip-path="url(#clip0_192_788)">
<path d="M68.5132 369.891H82V314.654H68.5132V369.891Z" fill="#688FB7"/>
<path d="M34.2566 369.891H47.7434L47.7434 314.654H34.2566L34.2566 369.891Z" fill="#BE7C78"/>
<path d="M34.2566 291.234H47.7434L47.7434 235.997H34.2566L34.2566 291.234Z" fill="#BE7C78"/>
<path d="M0.000110626 291.234H13.4868L13.4868 235.997H0.000110626L0.000110626 291.234Z" fill="#C0C78B"/>
<path d="M68.5132 212.552H82V157.314H68.5132V212.552Z" fill="#C0C78B"/>
<path d="M0.000110626 212.552H13.4868L13.4868 157.314H0.000110626L0.000110626 212.552Z" fill="#688FB7"/>
<path d="M68.5132 133.895H82V78.6573H68.5132V133.895Z" fill="#BE7C78"/>
<path d="M34.2566 133.895H47.7434L47.7434 78.6573H34.2566L34.2566 133.895Z" fill="#C0C78B"/>
<path d="M68.5132 55.2374H82V-7.62939e-06H68.5132V55.2374Z" fill="#C0C78B"/>
<path d="M34.2566 55.2374H47.7434L47.7434 -7.62939e-06H34.2566L34.2566 55.2374Z" fill="#688FB7"/>
<path d="M0.000110626 55.2374H13.4868L13.4868 -7.62939e-06H0.000110626L0.000110626 55.2374Z" fill="#BE7C78"/>
</g>
<defs>
<clipPath id="clip0_192_788">
<rect width="82.0001" height="392.89" fill="white"/>
</clipPath>
</defs>
</svg>
