<svg width="32" height="32" viewBox="0 0 32 32" fill="none" xmlns="http://www.w3.org/2000/svg">
<rect width="32" height="32" fill="white"/>
<path d="M27.7449 16.27C27.7449 15.48 27.6749 14.73 27.5549 14H16.2549V18.51H22.7249C22.4349 19.99 21.5849 21.24 20.3249 22.09V25.09H24.1849C26.4449 23 27.7449 19.92 27.7449 16.27Z" fill="#4285F4"/>
<path d="M16.2549 28C19.4949 28 22.2049 26.92 24.1849 25.09L20.3249 22.09C19.2449 22.81 17.8749 23.25 16.2549 23.25C13.1249 23.25 10.4749 21.14 9.52492 18.29H5.54492V21.38C7.51492 25.3 11.5649 28 16.2549 28Z" fill="#34A853"/>
<path d="M9.52488 18.29C9.27488 17.57 9.14488 16.8 9.14488 16C9.14488 15.2 9.28488 14.43 9.52488 13.71V10.62H5.54488C4.72488 12.24 4.25488 14.06 4.25488 16C4.25488 17.94 4.72488 19.76 5.54488 21.38L9.52488 18.29Z" fill="#FBBC05"/>
<path d="M16.2549 8.75C18.0249 8.75 19.6049 9.36 20.8549 10.55L24.2749 7.13C22.2049 5.19 19.4949 4 16.2549 4C11.5649 4 7.51492 6.7 5.54492 10.62L9.52492 13.71C10.4749 10.86 13.1249 8.75 16.2549 8.75Z" fill="#EA4335"/>
</svg>
