<svg width="135" height="269" viewBox="0 0 135 269" fill="none" xmlns="http://www.w3.org/2000/svg">
<path d="M31.35 133.67C31.35 76.61 77.61 30.35 134.67 30.35" stroke="#726A69" stroke-miterlimit="10"/>
<path d="M134.67 236.99C77.61 236.99 31.35 190.73 31.35 133.67" stroke="#726A69" stroke-width="4" stroke-miterlimit="10"/>
<path d="M31.35 133.67C31.35 76.61 77.61 30.35 134.67 30.35" stroke="#726A69" stroke-miterlimit="10"/>
<path d="M134.67 236.99C77.61 236.99 31.35 190.73 31.35 133.67" stroke="#726A69" stroke-width="4" stroke-miterlimit="10"/>
<path d="M21.8101 133.67C21.8101 71.34 72.34 20.81 134.67 20.81" stroke="#726A69" stroke-miterlimit="10"/>
<path d="M134.67 246.53C72.34 246.53 21.8101 196 21.8101 133.67" stroke="#726A69" stroke-width="4" stroke-miterlimit="10"/>
<path d="M21.8101 133.67C21.8101 71.34 72.34 20.81 134.67 20.81" stroke="#726A69" stroke-miterlimit="10"/>
<path d="M134.67 246.53C72.34 246.53 21.8101 196 21.8101 133.67" stroke="#726A69" stroke-width="4" stroke-miterlimit="10"/>
<path d="M12.3101 133.67C12.3101 66.09 67.09 11.31 134.67 11.31" stroke="#726A69" stroke-miterlimit="10"/>
<path d="M134.67 256.03C67.09 256.03 12.3101 201.25 12.3101 133.67" stroke="#726A69" stroke-width="4" stroke-miterlimit="10"/>
<path d="M2 133.67C2 60.4 61.4 1 134.67 1" stroke="#726A69" stroke-miterlimit="10"/>
<path d="M134.67 266.34C61.4 266.34 2 206.94 2 133.67" stroke="#726A69" stroke-width="4" stroke-miterlimit="10"/>
</svg>
